<svg viewBox="0 0 23.81 16.17" xmlns="http://www.w3.org/2000/svg"><g data-name="Camada 2"><g data-name="Camada 1"><path d="M21.88 0H1.94A1.94 1.94 0 0 0 0 1.94v12.29a1.94 1.94 0 0 0 1.94 1.94h19.94a1.94 1.94 0 0 0 1.94-1.94V1.94A1.94 1.94 0 0 0 21.88 0ZM1 3.73h21.81v2.36H1ZM1.94 1h19.94a.94.94 0 0 1 .94.94v.79H1v-.79A.94.94 0 0 1 1.94 1Zm19.94 14.17H1.94a.94.94 0 0 1-.94-.94V7.09h21.81v7.13a.94.94 0 0 1-.93.95Z" fill="#ffffff" class="fill-000000"></path><path d="M19.43 9.79a1.92 1.92 0 0 0-1.44.65A1.94 1.94 0 1 0 18 13a1.93 1.93 0 1 0 1.44-3.22Zm-2.87 2.87a.94.94 0 1 1 .94-.94.94.94 0 0 1-.94.94Zm2.87 0a.94.94 0 1 1 .94-.94.94.94 0 0 1-.94.94Z" fill="#ffffff" class="fill-000000"></path></g></g></svg>