<svg viewBox="0 0 512 512" xmlns="http://www.w3.org/2000/svg"><path d="M126.96 138.482h-.382a69.549 69.549 0 0 0-69.547 70.08 6.5 6.5 0 0 0 6.5 6.452h.048a6.5 6.5 0 0 0 6.452-6.548 56.548 56.548 0 0 1 56.538-56.984h.383a6.5 6.5 0 0 0 .009-13ZM208.161 272.597h94.76a12.192 12.192 0 0 1 12.192 12.192v94.76a12.192 12.192 0 0 1-12.191 12.192h-94.76a12.192 12.192 0 0 1-12.193-12.192v-94.76a12.192 12.192 0 0 1 12.193-12.193Z" fill="#ffffff" class="fill-000000"></path><path d="M385.351 310.789c56.91 0 103.55-45.749 103.966-101.982A102.76 102.76 0 0 0 386.56 105.27h-.372a30.515 30.515 0 0 1-27.602-17.578 113.113 113.113 0 0 0-205.172 0 30.544 30.544 0 0 1-27.67 17.579h-.305A102.759 102.759 0 0 0 22.683 208.806C23.1 265.04 69.738 310.79 126.648 310.79h39.66v17.766h-65.132a19.2 19.2 0 1 0 0 13h65.132v13.51h-40.501a15.988 15.988 0 0 0-15.971 15.97v76.867a19.2 19.2 0 1 0 13 0v-76.868a2.974 2.974 0 0 1 2.97-2.97h40.502v21.853a31.522 31.522 0 0 0 31.486 31.486h20.621a6.71 6.71 0 0 0-.032.637l.009 27.521a19.2 19.2 0 1 0 12.992.005l-.001-27.526c0-.215-.012-.427-.032-.637h49.534c-.02.21-.032.422-.032.637v27.525a19.199 19.199 0 1 0 12.992-.003l.008-27.522c0-.215-.012-.427-.033-.637h19.469a31.522 31.522 0 0 0 31.486-31.486v-21.853h34.566a2.974 2.974 0 0 1 2.97 2.97v76.868a19.2 19.2 0 1 0 13 0v-76.868a15.988 15.988 0 0 0-15.97-15.97h-34.566v-13.51h59.196a19.2 19.2 0 1 0 0-13h-59.196V310.79Zm-53.576 79.128a18.507 18.507 0 0 1-18.486 18.486H197.794a18.507 18.507 0 0 1-18.486-18.486V274.422a18.507 18.507 0 0 1 18.486-18.487h115.495a18.507 18.507 0 0 1 18.486 18.486Zm12.322-121.995a31.538 31.538 0 0 0-30.808-24.987h-19.436l-.003-46.7a19.2 19.2 0 1 0-12.993.002l-.004 46.698h-49.47l-.008-46.697a19.2 19.2 0 1 0-12.992-.003v46.7h-20.59a31.538 31.538 0 0 0-30.808 24.992c-.038 0-.075-.006-.113-.006H153.4a5.282 5.282 0 0 1-5.276-5.276v-30.82a19.2 19.2 0 1 0-13 0v30.82a18.297 18.297 0 0 0 18.276 18.276h12.907v16.868h-39.659c-49.795 0-90.601-39.96-90.966-89.078a89.759 89.759 0 0 1 89.757-90.442h.373a43.557 43.557 0 0 0 39.391-25.097 100.112 100.112 0 0 1 181.594 0 43.558 43.558 0 0 0 39.409 25.098h.355a89.759 89.759 0 0 1 89.756 90.44c-.364 49.119-41.17 89.08-90.965 89.08h-40.577V280.92h6.972a18.297 18.297 0 0 0 18.276-18.275v-30.82a19.2 19.2 0 1 0-13 0v30.82a5.282 5.282 0 0 1-5.276 5.275Z" fill="#ffffff" class="fill-000000"></path></svg>