<svg viewBox="0 0 64 64" xmlns="http://www.w3.org/2000/svg"><g data-name="03-Difficulty Breathing"><path d="m48 53 2 10h10l-4-22-1.089-4.9a7 7 0 0 0-4.959-5.227L37 27v-8c3-2 4-4 4-6V9a8 8 0 0 0-8-8h-5a7.134 7.134 0 0 0-5.937 3.073A5.417 5.417 0 0 0 21 7c0 2.348-1.838 4.7-2.637 5.606a1.444 1.444 0 0 0-.363.955A1.439 1.439 0 0 0 19.439 15H21v5a2 2 0 0 0 2 2h4v5l-12.952 3.875A7 7 0 0 0 9.089 36.1L8 41 4 63h10l2-10" fill="none" stroke="#ffffff" stroke-linejoin="round" stroke-width="2px" class="stroke-000000"></path><path d="M30 34a3.939 3.939 0 0 0-3.667-2c-1.854 0-4.541 3.182-6.095 5.255A6.324 6.324 0 0 0 19 41.049v11.164A3.639 3.639 0 0 0 22.471 56a3.28 3.28 0 0 0 2.017-.7l4.058-3.162A3.9 3.9 0 0 0 30 49.051V42M34 34a3.939 3.939 0 0 1 3.667-2c1.854 0 4.541 3.182 6.095 5.255A6.324 6.324 0 0 1 45 41.049v11.164A3.639 3.639 0 0 1 41.529 56a3.28 3.28 0 0 1-2.017-.7l-4.058-3.162A3.9 3.9 0 0 1 34 49.051V42M16 43v10l4 10M48 43v10l-4 10M10 12l6 4M16 22l-6 4M16 19H9" fill="none" stroke="#ffffff" stroke-linejoin="round" stroke-width="2px" class="stroke-000000"></path><circle cx="6.5" cy="9.5" r="1.5" fill="none" stroke="#ffffff" stroke-linejoin="round" stroke-width="2px" class="stroke-000000"></circle><circle cx="6.5" cy="28.5" r="1.5" fill="none" stroke="#ffffff" stroke-linejoin="round" stroke-width="2px" class="stroke-000000"></circle><path d="M5 19h2M26 15h2M29 17h2M23 38h2M21 42h2M23 51h2M36 46h2M40 44h2M39 39h2M3 14h2M3 24h2" fill="none" stroke="#ffffff" stroke-linejoin="round" stroke-width="2px" class="stroke-000000"></path><circle cx="23.5" cy="46.5" r="1.5" fill="none" stroke="#ffffff" stroke-linejoin="round" stroke-width="2px" class="stroke-000000"></circle><circle cx="40.5" cy="50.5" r="1.5" fill="none" stroke="#ffffff" stroke-linejoin="round" stroke-width="2px" class="stroke-000000"></circle><path d="M30 24v-2.581C30 19.941 29.478 19 28 19h-7M30 28v-2" fill="none" stroke="#ffffff" stroke-linejoin="round" stroke-width="2px" class="stroke-000000"></path><path d="M19 12h9c5 0 6 4 6 7v17l1.9 1.266a2.472 2.472 0 0 1 1.1 2.057v.2A2.472 2.472 0 0 1 34.528 42a2.47 2.47 0 0 1-2.211-1.367L32 40l-.317.633A2.47 2.47 0 0 1 29.472 42 2.472 2.472 0 0 1 27 39.528v-.2a2.472 2.472 0 0 1 1.1-2.057L30 36v-6" fill="none" stroke="#ffffff" stroke-linejoin="round" stroke-width="2px" class="stroke-000000"></path></g></svg>