<svg viewBox="0 0 64 64" xml:space="preserve" xmlns="http://www.w3.org/2000/svg" enable-background="new 0 0 64 64"><path d="M63 26c0-3.433-2.007-6.561-5.05-8.06.032-.309.05-.622.05-.94 0-4.963-4.038-9-9-9-.076 0-.151.013-.228.015C47.865 4.005 44.28 1 40 1c-3.483 0-6.505 1.993-8 4.896C30.505 2.993 27.483 1 24 1a8.993 8.993 0 0 0-8.775 7.011C15.15 8.01 15.076 8 15 8c-4.962 0-9 4.037-9 9 0 .305.016.613.049.922C2.999 19.42 1 22.57 1 26c0 2.303.877 4.4 2.305 5.993A9 9 0 0 0 1 38c0 3.432 2.007 6.561 5.05 8.06-.032.309-.05.622-.05.94 0 4.963 4.038 9 9 9 .076 0 .15-.01.225-.011A8.993 8.993 0 0 0 24 63c3.483 0 6.505-1.993 8-4.896C33.495 61.007 36.517 63 40 63c4.28 0 7.865-3.005 8.772-7.015.077.002.152.015.228.015 4.962 0 9-4.037 9-9 0-.305-.017-.612-.049-.922C61.001 44.581 63 41.43 63 38c0-2.303-.877-4.4-2.305-5.993A9 9 0 0 0 63 26zm-6.507 18.533-.785.3.16.825c.088.452.132.904.132 1.342 0 3.859-3.14 7-7 7 0-4.963-4.038-9-9-9v2c3.86 0 7 3.141 7 7s-3.14 7-7 7-7-3.141-7-7V16h-2v38c0 3.859-3.14 7-7 7a6.992 6.992 0 0 1-6.783-5.288C21.109 54.721 24 51.196 24 47h-2c0 3.859-3.14 7-7 7s-7-3.141-7-7 3.14-7 7-7v-2c-3.932 0-7.275 2.539-8.497 6.06C4.372 42.824 3 40.51 3 38c0-1.734.647-3.395 1.793-4.673A8.941 8.941 0 0 0 10 35v-2c-3.86 0-7-3.141-7-7 0-2.878 1.812-5.504 4.507-6.533l.786-.301-.161-.825A6.997 6.997 0 0 1 8 17c0-3.859 3.14-7 7-7s7 3.141 7 7h2c0-4.196-2.891-7.721-6.783-8.712A6.992 6.992 0 0 1 24 3c3.86 0 7 3.141 7 7v4h2v-4c0-3.859 3.14-7 7-7s7 3.141 7 7-3.14 7-7 7v2c4.962 0 9-4.037 9-9 3.86 0 7 3.141 7 7s-3.14 7-7 7v2c3.932 0 7.275-2.539 8.497-6.061A7.046 7.046 0 0 1 61 26a7.002 7.002 0 0 1-1.793 4.673A8.941 8.941 0 0 0 54 29c-4.962 0-9 4.037-9 9h2c0-3.859 3.14-7 7-7s7 3.141 7 7c0 2.878-1.812 5.504-4.507 6.533z" fill="#ffffff" class="fill-000000"></path><path d="M43 10h2c0-2.757-2.243-5-5-5v2c1.654 0 3 1.346 3 3zM37 54h-2c0 2.757 2.243 5 5 5v-2c-1.654 0-3-1.346-3-3zM54 41v2c2.757 0 5-2.243 5-5h-2c0 1.654-1.346 3-3 3zM39 37h-2c0 3.309 2.691 6 6 6v-2c-2.206 0-4-1.794-4-4zM41 23v-2c-3.309 0-6 2.691-6 6h2c0-2.206 1.794-4 4-4zM25 37h-2c0 3.309 2.691 6 6 6v-2c-2.206 0-4-1.794-4-4zM40 28h-2c0 3.309 2.691 6 6 6v-2c-2.206 0-4-1.794-4-4zM27 23v-2c-3.309 0-6 2.691-6 6h2c0-2.206 1.794-4 4-4zM14 36h2c0-2.206 1.794-4 4-4v-2c-3.309 0-6 2.691-6 6zM15 50v2c2.757 0 5-2.243 5-5h-2c0 1.654-1.346 3-3 3zM5 26h2c0-1.654 1.346-3 3-3v-2c-2.757 0-5 2.243-5 5zM15 12v2c1.654 0 3 1.346 3 3h2c0-2.757-2.243-5-5-5zM24 5v2c1.654 0 3 1.346 3 3h2c0-2.757-2.243-5-5-5z" fill="#ffffff" class="fill-000000"></path></svg>