<svg viewBox="0 0 512 512" xml:space="preserve" xmlns="http://www.w3.org/2000/svg"><path d="m402.083 236.487-45.072-15.908a46.974 46.974 0 0 1-31.298-41.432l-4.244-67.905C334.36 108.252 344 96.681 344 82.893V29.107C344 13.057 330.943 0 314.893 0H197.107C181.057 0 168 13.057 168 29.107v53.786c0 13.788 9.64 25.359 22.532 28.349l-4.244 67.905a46.974 46.974 0 0 1-31.298 41.432l-45.072 15.908c-35.759 12.621-55.235 50.959-44.339 87.282l44.771 149.236C117.346 496.329 138.408 512 162.76 512h186.48c24.352 0 45.414-15.671 52.411-38.995l44.771-149.236c10.896-36.323-8.58-74.662-44.339-87.282zM184 82.893V29.107C184 21.88 189.88 16 197.107 16h117.786C322.12 16 328 21.88 328 29.107v53.786C328 90.12 322.12 96 314.893 96H197.107C189.88 96 184 90.12 184 82.893zm-68.758 168.682 45.072-15.908a62.95 62.95 0 0 0 41.942-55.522l4.26-68.145h98.969l4.259 68.145a62.95 62.95 0 0 0 41.942 55.522l45.072 15.908c18.658 6.585 31.577 22.214 35.451 40.311-33.082 8.113-94.597 15.473-173.783-9.729-72.772-23.163-131.711-19.799-167.758-13.166a54.753 54.753 0 0 1 24.574-17.416zm271.084 216.832C381.375 484.911 366.471 496 349.24 496H162.76c-17.231 0-32.134-11.089-37.085-27.593L80.903 319.171a54.76 54.76 0 0 1 .047-31.78c31.912-7.646 93.523-15.164 172.623 10.012 42.752 13.607 80.689 18.115 112.197 18.115 27.926 0 50.761-3.543 67.446-7.431a55.326 55.326 0 0 1-2.12 11.084l-44.77 149.236z" fill="#ffffff" class="fill-000000"></path><path d="M303.933 428.62c.028-.439.067-.874.067-1.32v-20.14c9.226-2.631 16-11.137 16-21.196V376a63.58 63.58 0 0 0-7.217-29.469l12.874-12.874a7.998 7.998 0 0 0 0-11.313 8 8 0 0 0-11.313 0l-10.83 10.83C291.791 320.182 274.835 312 256 312s-35.791 8.182-47.513 21.174l-10.83-10.83a8 8 0 0 0-11.313 0 7.998 7.998 0 0 0 0 11.313l12.874 12.874A63.569 63.569 0 0 0 192 376v9.963c0 10.059 6.774 18.565 16 21.196v20.14c0 .445.039.881.067 1.32l-21.724 21.724a7.998 7.998 0 0 0 0 11.313c1.562 1.562 3.609 2.343 5.657 2.343s4.095-.781 5.657-2.343l18.173-18.173c3.537 2.819 8.006 4.516 12.87 4.516h54.6c4.864 0 9.333-1.698 12.87-4.516l18.173 18.173c1.562 1.562 3.609 2.343 5.657 2.343s4.095-.781 5.657-2.343a7.998 7.998 0 0 0 0-11.313l-21.724-21.723zM288 427.3c0 2.592-2.108 4.7-4.7 4.7H280v-16a8 8 0 0 0-16 0v16h-16v-16a8 8 0 0 0-16 0v16h-3.3a4.705 4.705 0 0 1-4.7-4.7V400a8 8 0 0 0-8-8h-1.963a6.044 6.044 0 0 1-6.037-6.037V376c0-26.467 21.533-48 48-48s48 21.533 48 48v9.963a6.044 6.044 0 0 1-6.037 6.037H296a8 8 0 0 0-8 8v27.3zM224 264c13.234 0 24-10.766 24-24s-10.766-24-24-24-24 10.766-24 24 10.766 24 24 24zm0-32c4.411 0 8 3.589 8 8s-3.589 8-8 8-8-3.589-8-8 3.589-8 8-8zM280 248c0 13.234 10.766 24 24 24s24-10.766 24-24-10.766-24-24-24-24 10.766-24 24zm24-8c4.411 0 8 3.589 8 8s-3.589 8-8 8-8-3.589-8-8 3.589-8 8-8zM368 184c13.234 0 24-10.766 24-24s-10.766-24-24-24-24 10.766-24 24 10.766 24 24 24zm0-32c4.411 0 8 3.589 8 8s-3.589 8-8 8-8-3.589-8-8 3.589-8 8-8zM472 64c13.234 0 24-10.766 24-24s-10.766-24-24-24-24 10.766-24 24 10.766 24 24 24zm0-32c4.411 0 8 3.589 8 8s-3.589 8-8 8-8-3.589-8-8 3.589-8 8-8zM472 216c-13.234 0-24 10.766-24 24s10.766 24 24 24 24-10.766 24-24-10.766-24-24-24zm0 32c-4.411 0-8-3.589-8-8s3.589-8 8-8 8 3.589 8 8-3.589 8-8 8zM152 432c-13.234 0-24 10.766-24 24s10.766 24 24 24 24-10.766 24-24-10.766-24-24-24zm0 32c-4.411 0-8-3.589-8-8s3.589-8 8-8 8 3.589 8 8-3.589 8-8 8zM376 344c-13.234 0-24 10.766-24 24s10.766 24 24 24 24-10.766 24-24-10.766-24-24-24zm0 32c-4.411 0-8-3.589-8-8s3.589-8 8-8 8 3.589 8 8-3.589 8-8 8zM152 320c0-13.234-10.766-24-24-24s-24 10.766-24 24 10.766 24 24 24 24-10.766 24-24zm-32 0c0-4.411 3.589-8 8-8s8 3.589 8 8-3.589 8-8 8-8-3.589-8-8zM232.02 192a8 8 0 0 0 0-16h-.01c-4.418 0-7.995 3.582-7.995 8s3.587 8 8.005 8z" fill="#ffffff" class="fill-000000"></path><path d="M176.02 328h-.01c-4.418 0-7.995 3.582-7.995 8s3.586 8 8.005 8a8 8 0 1 0 0-16zM232.02 144a8 8 0 0 0 0-16h-.01c-4.418 0-7.995 3.582-7.995 8s3.587 8 8.005 8zM288.02 176a8 8 0 0 0 0-16h-.01c-4.418 0-7.995 3.582-7.995 8s3.587 8 8.005 8zM328.02 376h-.01c-4.418 0-7.995 3.582-7.995 8s3.586 8 8.005 8a8 8 0 1 0 0-16z" fill="#ffffff" class="fill-000000"></path><circle cx="264" cy="200" r="16" fill="#ffffff" class="fill-000000"></circle><circle cx="352" cy="432" r="16" fill="#ffffff" class="fill-000000"></circle><circle cx="160" cy="392" r="16" fill="#ffffff" class="fill-000000"></circle><circle cx="264" cy="136" r="16" fill="#ffffff" class="fill-000000"></circle><circle cx="232" cy="368" r="16" fill="#ffffff" class="fill-000000"></circle><circle cx="280" cy="368" r="16" fill="#ffffff" class="fill-000000"></circle><path d="M384 80h8v8a8 8 0 0 0 16 0v-8h8a8 8 0 0 0 0-16h-8v-8a8 8 0 0 0-16 0v8h-8a8 8 0 0 0 0 16zM448 152h8v8a8 8 0 0 0 16 0v-8h8a8 8 0 0 0 0-16h-8v-8a8 8 0 0 0-16 0v8h-8a8 8 0 0 0 0 16zM120 160c0 13.234 10.766 24 24 24s24-10.766 24-24-10.766-24-24-24-24 10.766-24 24zm24-8c4.411 0 8 3.589 8 8s-3.589 8-8 8-8-3.589-8-8 3.589-8 8-8zM40 64c13.234 0 24-10.766 24-24S53.234 16 40 16 16 26.766 16 40s10.766 24 24 24zm0-32c4.411 0 8 3.589 8 8s-3.589 8-8 8-8-3.589-8-8 3.589-8 8-8zM40 216c-13.234 0-24 10.766-24 24s10.766 24 24 24 24-10.766 24-24-10.766-24-24-24zm0 32c-4.411 0-8-3.589-8-8s3.589-8 8-8 8 3.589 8 8-3.589 8-8 8zM96 80h8v8a8 8 0 0 0 16 0v-8h8a8 8 0 0 0 0-16h-8v-8a8 8 0 0 0-16 0v8h-8a8 8 0 0 0 0 16zM56 136v-8a8 8 0 0 0-16 0v8h-8a8 8 0 0 0 0 16h8v8a8 8 0 0 0 16 0v-8h8a8 8 0 0 0 0-16h-8z" fill="#ffffff" class="fill-000000"></path></svg>