<svg viewBox="0 0 24 24" xml:space="preserve" xmlns="http://www.w3.org/2000/svg"><path d="M12 4.041c-3.859 0-7 3.141-7 7 0 1.314.368 2.598 1.063 3.71a.5.5 0 0 0 .847-.53A6.006 6.006 0 0 1 12 5.041c3.309 0 6 2.691 6 6a5.972 5.972 0 0 1-.92 3.192.5.5 0 0 0 .846.534A6.974 6.974 0 0 0 19 11.041c0-3.859-3.141-7-7-7zM11.646 2.895a.502.502 0 0 0 .708 0l2-2a.5.5 0 0 0-.707-.707L12 1.834 10.354.188a.5.5 0 0 0-.707.707l1.999 2zM21.207 11.041l1.646-1.647a.5.5 0 0 0-.707-.707l-2 2a.5.5 0 0 0 0 .707l2 2a.5.5 0 1 0 .708-.707l-1.647-1.646zM1.854 8.688a.5.5 0 0 0-.707.707l1.646 1.647-1.646 1.646a.5.5 0 0 0 .708.707l2-2a.5.5 0 0 0 0-.707l-2.001-2z" fill="#ffffff" class="fill-000000"></path><path d="m16.917 16.905-3.92-1.171V10.98a1 1 0 1 0-2 0V19c-1.381-3.092-4.432-2.447-3.217-.59L10.84 23h6.12c.104-.574.72-4.013.85-4.576a1.28 1.28 0 0 0-.893-1.519z" fill="#ffffff" class="fill-000000"></path><path fill="none" d="M0 0h24v24H0z"></path></svg>