<svg viewBox="0 0 60 60" xmlns="http://www.w3.org/2000/svg"><path d="M42 17h-5v10h5a5 5 0 0 0 0-10Zm0 8a3 3 0 1 1 3-3 3 3 0 0 1-3 3ZM19.974 33.3a9.146 9.146 0 0 0-8.966-8.3H11a8.671 8.671 0 0 0-4.751 1.33 9.011 9.011 0 0 0 9.031 15.587 2 2 0 0 1 1.057-.239l2.729.154a1 1 0 0 0 1-1.329l-.678-1.937a1.993 1.993 0 0 1 .026-1.374 8.9 8.9 0 0 0 .56-3.892ZM6 33a1 1 0 0 1-1-1 3 3 0 0 1 3-3 1 1 0 0 1 0 2 1 1 0 0 0-1 1 1 1 0 0 1-1 1Zm4 7a1 1 0 0 1-1-1 1 1 0 0 0-1-1 1 1 0 0 1 0-2 3 3 0 0 1 3 3 1 1 0 0 1-1 1Zm3-9a1 1 0 0 1-2 0 3 3 0 0 1 3-3 1 1 0 0 1 0 2 1 1 0 0 0-1 1Zm4.948 4.42a1 1 0 0 1-1.264.632 1 1 0 0 0-1.266.633 1 1 0 0 1-.948.683.975.975 0 0 1-.317-.052 1 1 0 0 1-.632-1.264 3 3 0 0 1 3.795-1.9 1 1 0 0 1 .632 1.268Z" fill="#ffffff" class="fill-000000"></path><circle cx="42" cy="22" r="1" fill="#ffffff" class="fill-000000"></circle><path d="M58 57a2.006 2.006 0 0 0-2-2H25a2.006 2.006 0 0 0-2 2v1h35ZM28 6h4v3h-4zM26 48h13.417l.833-2H26a.959.959 0 0 0-.693.287A.977.977 0 0 0 25 47a1 1 0 0 0 1 1ZM34 3a1 1 0 0 0-1-1h-6a1 1 0 0 0 0 2h6a1 1 0 0 0 1-1ZM50.59 43.615a1 1 0 0 0-.923-.615h-5.334a1 1 0 0 0-.923.615l-.738 1.772v.005L39.5 53h15ZM47 51a3 3 0 1 1 3-3 3 3 0 0 1-3 3Z" fill="#ffffff" class="fill-000000"></path><circle cx="47" cy="48" r="1" fill="#ffffff" class="fill-000000"></circle><path d="m49.6 19.73-1.12-.36a6.736 6.736 0 0 1 .5 2.265c.006.122.018.242.018.365a6.917 6.917 0 0 1-.059.869 7.484 7.484 0 0 1-.139.737 6.992 6.992 0 0 1-.762 1.934l.06.02a8.975 8.975 0 0 1 2.75 15.26l-.35.3a2.947 2.947 0 0 1 1.658 1.215 3.017 3.017 0 0 1 .28.509l.569 1.365.8 1.923.43-.34A14.973 14.973 0 0 0 49.6 19.73ZM25 12v17a1 1 0 0 0 1 1h8a1 1 0 0 0 1-1V12a1 1 0 0 0-1-1h-8a1 1 0 0 0-1 1Zm2 4a1 1 0 0 1 2 0v11a1 1 0 0 1-2 0ZM33 33v-1h-6v1a1 1 0 0 0 1 1h4a1 1 0 0 0 1-1ZM30 40a1 1 0 0 0 1-1v-3h-2v3a1 1 0 0 0 1 1Z" fill="#ffffff" class="fill-000000"></path></svg>