<svg data-name="Layer 23" viewBox="0 0 32 32" xmlns="http://www.w3.org/2000/svg"><path d="M11 2a1 1 0 0 0-1 1H7a1 1 0 0 0 0 2h2.96a2.978 2.978 0 0 1-1.618 2.211L7 7.882l-1.342-.671A2.982 2.982 0 0 1 4 4.528V3a1 1 0 0 0-2 0v1.528A4.972 4.972 0 0 0 4.764 9 4.972 4.972 0 0 0 2 13.472v5.056A4.973 4.973 0 0 0 4.764 23 4.973 4.973 0 0 0 2 27.472V29a1 1 0 0 0 2 0v-1.528a2.983 2.983 0 0 1 1.658-2.683L7 24.118l1.342.671A2.979 2.979 0 0 1 9.96 27H7a1 1 0 0 0 0 2h3a1 1 0 0 0 2 0v-1.528A4.973 4.973 0 0 0 9.236 23 4.973 4.973 0 0 0 12 18.528v-5.056A4.972 4.972 0 0 0 9.236 9 4.972 4.972 0 0 0 12 4.528V3a1 1 0 0 0-1-1Zm-2.658 8.789A2.982 2.982 0 0 1 10 13.472v5.056a2.983 2.983 0 0 1-1.658 2.683L7 21.882l-1.342-.671A2.979 2.979 0 0 1 4.04 19H7a1 1 0 0 0 0-2H4v-2h3a1 1 0 0 0 0-2H4.04a2.977 2.977 0 0 1 1.618-2.211L7 10.118Z" fill="#ffffff" class="fill-000000"></path><path d="M29 14a1 1 0 0 0-1 1h-1.059a8.952 8.952 0 0 0-1.916-4.611l.753-.753a1 1 0 0 0 1.414-1.414l-1.414-1.414a1 1 0 0 0-1.414 1.414l-.753.753A8.952 8.952 0 0 0 19 7.059V6a1 1 0 0 0 0-2h-2a1 1 0 0 0 0 2v1.063a9.022 9.022 0 0 0-4.626 1.911 1 1 0 1 0 1.251 1.561A6.923 6.923 0 0 1 18 9a7 7 0 0 1 0 14 6.932 6.932 0 0 1-4.375-1.535 1 1 0 0 0-1.25 1.561A9.022 9.022 0 0 0 17 24.937V26a1 1 0 0 0 0 2h2a1 1 0 0 0 0-2v-1.059a8.951 8.951 0 0 0 4.611-1.916l.753.753a1 1 0 1 0 1.414 1.414l1.414-1.414a1 1 0 0 0-1.414-1.414l-.753-.753A8.951 8.951 0 0 0 26.941 17H28a1 1 0 0 0 2 0v-2a1 1 0 0 0-1-1Z" fill="#ffffff" class="fill-000000"></path><path d="M19 21a3 3 0 1 0-3-3 3 3 0 0 0 3 3Zm0-4a1 1 0 1 1-1 1 1 1 0 0 1 1-1Z" fill="#ffffff" class="fill-000000"></path><circle cx="18" cy="12" r="2" fill="#ffffff" class="fill-000000"></circle><circle cx="14" cy="15" r="1" fill="#ffffff" class="fill-000000"></circle></svg>